# xmcd
#
# Track frame offsets: 
#        150
#        15307
#        34477
#        51745
#        75212
#        90094
#        106192
#        121110
#        135669
#        145292
#        158913
#        178545
#
# Disc length: 2589 seconds
#
# Revision: 0
# Processed by: cddbd v1.5.2PL0 Copyright (c) Steve Scherf et al.
# Submitted via: ExactAudioCopy v0.95b3
#
DISCID=8d0a1b0c
DTITLE=Tom Morrell and The Timewarp Tophands - Relaxin' (How The West 
DTITLE=Was Swung Volume 15)
DYEAR=1900
DGENRE=Country
TTITLE0=All The Things You Are
TTITLE1=Relaxin'
TTITLE2=The Very Thought Of You
TTITLE3=Things Ain't What They Used To Be
TTITLE4=Crazy Rhythm
TTITLE5=Don't Get Around Much Anymore
TTITLE6=The Stumble
TTITLE7=Maybe You'll Be There
TTITLE8=Zip-A-Dee-Doo-Dah
TTITLE9=Change Partners
TTITLE10=Wills Point
TTITLE11=I'll Be Seeing You
EXTD=
EXTT0=
EXTT1=
EXTT2=
EXTT3=
EXTT4=
EXTT5=
EXTT6=
EXTT7=
EXTT8=
EXTT9=
EXTT10=
EXTT11=
PLAYORDER=
